<svg xmlns="http://www.w3.org/2000/svg" width="771" height="246" version="1.2"><path d="M96.375 14.789c-22.924 4.658-46.863 21.728-62.079 44.264-12.27 18.174-17.592 37.325-17.589 63.289.003 31.931 7.561 55.281 24.96 77.118 11.288 14.167 31.545 28.058 48.926 33.551 15.768 4.984 38.476 5.626 55.897 1.581 9.304-2.16 23.937-9.489 33.109-16.581 8.312-6.428 26.001-24.307 26.001-26.281 0-1.747-26.248-25.965-28.142-25.965-.824 0-6.263 4.884-12.087 10.854-12.131 12.435-22.065 17.967-36.224 20.171-28.849 4.491-59.779-18.034-69.941-50.935-3.301-10.687-3.598-29.449-.647-40.839 4.454-17.187 14.868-32.132 28.882-41.449 12.601-8.377 20.555-10.892 34.281-10.838 13.709.054 25.182 4.068 38.224 13.375 4.649 3.317 9.237 5.848 10.194 5.623 2.731-.643 26.465-23.737 26.465-25.752 0-2.409-5.012-6.99-16.98-15.52-17.225-12.277-35.639-17.625-60.12-17.462-8.128.054-18.536.862-23.13 1.796m106.694 58.129c-2.058.795-24.583 19.349-43.035 35.449-18.424 16.076-20.018 17.423-23.835 20.141l-3.611 2.571-5.81-4.823a2041.18 2041.18 0 0 1-14.501-12.212c-9.253-7.866-11.29-8.511-17.213-5.448-4.713 2.437-6.4 5.548-6.394 11.788.007 6.88 2.706 10.674 21.106 29.665 14.962 15.444 16.635 16.781 21.99 17.584 4.611.692 6.653.34 9.984-1.718 2.302-1.423 14.859-13.748 27.903-27.39l34.972-36.573c10.345-10.819 11.255-12.189 11.255-16.954 0-7.734-6.992-14.327-12.811-12.08m78.399 4.902c-14.969 6.968-23.238 16.662-27.264 31.961-4.65 17.672-2.349 34.59 6.613 48.605 9.025 14.114 23.318 20.935 41.801 19.947 12.778-.683 20.899-4.09 29.334-12.307 6.965-6.784 9.858-11.507 9.858-16.092 0-2.593-.798-3.24-4.819-3.904-10.946-1.81-14.045-1.151-16.988 3.611-4.009 6.487-14.836 11.528-22.147 10.31-16.143-2.688-25.436-15.176-25.436-34.18 0-16.147 10.725-30.719 24.084-32.722 8.819-1.323 14.717 1.087 21.424 8.754l5.821 6.654 8.067-2.572c6.793-2.167 8.127-3.077 8.447-5.767.762-6.409-12.337-19.852-23.274-23.884-2.25-.83-9.585-1.547-16.299-1.594-10.486-.073-13.197.376-19.222 3.18m73.837 47.024c.461 27.807 1.065 51.281 1.342 52.165.543 1.736 6.075 2.05 13.754.781l4.819-.796V141.35h11.392l6.361 10.601c3.499 5.831 7.609 13.083 9.135 16.116 4.547 9.041 6.75 10.548 15.412 10.548 12.736 0 13.987-1.52 8.457-10.28-1.766-2.799-3.212-5.327-3.212-5.617 0-.29-3.204-5.94-7.12-12.554l-7.12-12.027 2.944-1.892c16.245-10.444 20.809-29.893 10.9-46.441-3.289-5.491-5.611-7.62-11.717-10.74-7.559-3.863-7.791-3.895-31.9-4.335l-24.285-.443.838 50.558m89.305 1.064c0 48.076.146 51.429 2.249 51.528 10.749.51 61.574-.493 62.329-1.229.533-.52.597-4.515.141-8.877l-.829-7.931-21.986-.351-21.987-.351v-24.415l18.633-.14c10.248-.077 19.355-.221 20.239-.321 1.098-.124 1.606-2.772 1.606-8.369v-8.188l-20.56-.932-20.56-.932V93.805l20.239-.02c11.131-.01 21.047-.531 22.034-1.156 1.204-.763 1.839-3.827 1.928-9.297l.131-8.16-31.803-.343-31.804-.344v51.423m83.525-.252c0 39.973.357 51.52 1.606 51.942 3.767 1.274 46.877-1.484 52.822-3.378 21.205-6.759 33.373-26.948 31.134-51.658-2.097-23.143-10.079-35.323-28.746-43.863-6.931-3.172-8.731-3.391-32.08-3.901l-24.736-.541v51.399m104.085.916v52.043l4.819-.014c2.65-.008 6.987-.373 9.637-.811l4.819-.796V74.53H632.22v52.042m37.265-50.673c0 2.15 2.153 5.84 13.444 23.046 5.797 8.834 11.905 18.439 13.572 21.345l3.033 5.282-16.31 24.404c-8.97 13.422-16.309 25.003-16.309 25.736 0 2 8.345 3.169 15.892 2.226l6.678-.834 10.881-17.207c5.985-9.464 11.197-17.219 11.582-17.234.385-.016 5.319 7.621 10.965 16.97 10.249 16.972 10.273 16.999 16.005 18.022 7.27 1.298 17.947-.008 17.947-2.194 0-.895-1.548-3.876-3.44-6.625-1.893-2.749-8.036-11.938-13.651-20.419-5.616-8.481-11.296-16.986-12.622-18.901-1.327-1.915-2.412-3.817-2.412-4.227 0-.831 12.38-19.687 24.329-37.055 4.297-6.245 7.485-11.883 7.086-12.529-.4-.646-5.752-1.153-11.895-1.126l-11.168.049-10.164 16.643c-6.961 11.396-10.614 16.269-11.59 15.459-.783-.65-5.461-8.148-10.395-16.662l-8.971-15.479-11.243-.03c-7.12-.018-11.244.473-11.244 1.34m-91.878 20.157c10.795 5.573 16.165 14.93 16.408 28.589.116 6.467-.596 9.979-3.155 15.557-5.593 12.194-14.87 17.445-31.957 18.088l-10.85.407-.344-33.261-.343-33.262 12.551.614c9.261.453 13.897 1.309 17.69 3.268M400.22 94.603c3.185 1.222 5.84 7.448 5.84 13.692 0 9.51-6.794 13.78-21.929 13.78h-8.911v-28.27h11.46c6.303 0 12.396.359 13.54.798" fill-rule="evenodd"/></svg>